<svg xmlns="http://www.w3.org/2000/svg" viewBox="0 0 196 135"><defs><linearGradient id="a" x1="50%" x2="50%" y1="0%" y2="100%"><stop offset="0%" stop-color="#B9D4F3"/><stop offset="100%" stop-color="#FEFEFE" stop-opacity="0"/></linearGradient></defs><g fill="none" fill-rule="evenodd"><path fill="#B9D4F3" d="M196 1v133h-9V1zM178 1v133h-9V1zM160 1v133h-9V1z"/><path fill="url(#a)" transform="rotate(90 83 67)" d="M16 10h133v113H16z"/><path fill="currentColor" fill-rule="nonzero" stroke="currentColor" d="M6.05 41h90.9c2.789 0 5.05 2.313 5.05 5.167v82.666c0 2.854-2.261 5.167-5.05 5.167H6.05C3.261 134 1 131.687 1 128.833V46.167C1 43.313 3.261 41 6.05 41zm.317 6v81h90.266V47H6.367zM26.25 92.667h6.83v20.666h-6.83V92.667zm20.2-31h6.83v51.666h-6.83V61.667zm20.2 15.5h6.83v36.166h-6.83V77.167z"/></g></svg>