<svg xmlns="http://www.w3.org/2000/svg" viewBox="0 0 196 137"><defs><linearGradient id="a" x1="50%" x2="50%" y1="0%" y2="100%"><stop offset="0%" stop-color="#B9D4F3"/><stop offset="100%" stop-color="#FEFEFE" stop-opacity="0"/></linearGradient></defs><g fill="none" fill-rule="evenodd"><path fill="#B9D4F3" d="M196 1v133h-9V1zm-18 0v133h-9V1zm-18 0v133h-9V1z"/><path fill="url(#a)" transform="rotate(90 83 67)" d="M16 10h133v113H16z"/><path fill="currentColor" fill-rule="nonzero" stroke="currentColor" d="M6.05 43h90.9c2.789 0 5.05 2.313 5.05 5.167v82.666c0 2.854-2.261 5.167-5.05 5.167H6.05C3.261 136 1 133.687 1 130.833V48.167C1 45.313 3.261 43 6.05 43zm.317 6v81h90.266V49H6.367zM26.25 94.667h6.83v20.666h-6.83V94.667zm20.2-31h6.83v51.666h-6.83V63.667zm20.2 15.5h6.83v36.166h-6.83V79.167z"/></g></svg>