<svg xmlns="http://www.w3.org/2000/svg" viewBox="0 0 512 512"><path d="M454.352 398.431L331 190.879V87.42c17.459-6.192 30-22.865 30-42.42 0-24.813-20.187-45-45-45H196c-24.813 0-45 20.187-45 45 0 19.555 12.541 36.228 30 42.42v103.459L57.659 398.413c-14.085 23.476-14.442 51.715-.953 75.539C70.196 497.776 94.594 512 121.972 512h268.055c27.378 0 51.776-14.224 65.266-38.048 13.486-23.818 13.134-52.049-.941-75.521zM196 30h120c8.271 0 15 6.729 15 15s-6.729 15-15 15H196c-8.271 0-15-6.729-15-15s6.729-15 15-15zm12.895 172.664A15.001 15.001 0 00211 195V90h90v30h-15c-8.284 0-15 6.716-15 15s6.716 15 15 15h15v30h-15c-8.284 0-15 6.716-15 15s6.716 15 15 15h21.466l65.8 110.716C362.112 326.413 347.079 332 331 332c-34.968 0-64.739-25.95-65.036-26.213l-.002-.001C264.139 304.162 227.422 272 181 272c-4.587 0-9.215.321-13.872.94l41.767-70.276zm220.292 256.507C421.094 473.466 406.454 482 390.027 482H121.972c-16.427 0-31.066-8.534-39.16-22.829-8.093-14.295-7.88-31.238.604-45.377l61.501-103.482C157.353 304.799 169.477 302 181 302c34.968 0 64.74 25.951 65.006 26.186C247.551 329.566 284.39 362 331 362c22.25 0 42.237-7.287 57.631-15.43l39.953 67.224.032.054c8.451 14.085 8.665 31.028.571 45.323z"/><circle cx="165.88" cy="377" r="15"/><circle cx="345.88" cy="407" r="15"/><circle cx="255.88" cy="437" r="15"/></svg>