<?xml version="1.0" encoding="iso-8859-1"?>
<!-- Generator: Adobe Illustrator 19.0.0, SVG Export Plug-In . SVG Version: 6.00 Build 0) -->
<svg version="1.1" id="Capa_1" xmlns="http://www.w3.org/2000/svg" xmlns:xlink="http://www.w3.org/1999/xlink" x="0px" y="0px" viewBox="0 0 512 512" style="enable-background:new 0 0 512 512;" xml:space="preserve">
	<g>
		<g>
			<path d="M454.338,398.416L330.798,190.84V87.237c17.422-6.213,30.2-22.707,30.2-42.237c0-24.814-20.186-45-45-45h-120
			c-24.814,0-45,20.186-45,45c0,19.53,12.578,36.024,30,42.237V190.84L57.658,398.416C27.66,448.402,63.596,512,121.965,512h268.066
			C448.352,512,484.361,448.445,454.338,398.416z M165.998,392c-8.284,0-15-6.716-15-15c0-8.286,6.716-15,15-15s15,6.714,15,15
			C180.998,385.284,174.282,392,165.998,392z M255.998,452c-8.284,0-15-6.716-15-15c0-8.286,6.716-15,15-15s15,6.714,15,15
			C270.998,445.284,264.282,452,255.998,452z M345.998,422c-8.284,0-15-6.716-15-15c0-8.286,6.716-15,15-15s15,6.714,15,15
			C360.998,415.284,354.282,422,345.998,422z M330.998,330c-27.821,0-63.213-20.814-65.002-26.184
			C264.45,302.432,227.609,270,180.998,270c-4.442,0-9,1.086-13.506,1.666l41.167-68.947c1.406-2.329,2.139-4.995,2.139-7.72V90
			h90.2v30h-15c-8.291,0-15,6.709-15,15s6.709,15,15,15h15v30h-15c-8.291,0-15,6.709-15,15s6.709,15,15,15h21.508l65.283,108.809
			C361.67,324.459,346.983,330,330.998,330z" />
		</g>
	</g>
	<g>
	</g>
	<g>
	</g>
	<g>
	</g>
	<g>
	</g>
	<g>
	</g>
	<g>
	</g>
	<g>
	</g>
	<g>
	</g>
	<g>
	</g>
	<g>
	</g>
	<g>
	</g>
	<g>
	</g>
	<g>
	</g>
	<g>
	</g>
	<g>
	</g>
</svg>
