<svg xmlns="http://www.w3.org/2000/svg" viewBox="0 0 512 512"><path d="M454.338 398.416L330.798 190.84V87.237c17.422-6.213 30.2-22.707 30.2-42.237 0-24.814-20.186-45-45-45h-120c-24.814 0-45 20.186-45 45 0 19.53 12.578 36.024 30 42.237V190.84L57.658 398.416C27.66 448.402 63.596 512 121.965 512h268.066c58.321 0 94.33-63.555 64.307-113.584zM165.998 392c-8.284 0-15-6.716-15-15 0-8.286 6.716-15 15-15s15 6.714 15 15c0 8.284-6.716 15-15 15zm90 60c-8.284 0-15-6.716-15-15 0-8.286 6.716-15 15-15s15 6.714 15 15c0 8.284-6.716 15-15 15zm90-30c-8.284 0-15-6.716-15-15 0-8.286 6.716-15 15-15s15 6.714 15 15c0 8.284-6.716 15-15 15zm-15-92c-27.821 0-63.213-20.814-65.002-26.184C264.45 302.432 227.609 270 180.998 270c-4.442 0-9 1.086-13.506 1.666l41.167-68.947a14.918 14.918 0 002.139-7.72V90h90.2v30h-15c-8.291 0-15 6.709-15 15s6.709 15 15 15h15v30h-15c-8.291 0-15 6.709-15 15s6.709 15 15 15h21.508l65.283 108.809C361.67 324.459 346.983 330 330.998 330z"/></svg>