<svg xmlns="http://www.w3.org/2000/svg" viewBox="0 0 213 131"><defs><linearGradient id="a" x1="50%" x2="50%" y1="0%" y2="100%"><stop offset="0%" stop-color="#B0B0B0"/><stop offset="100%" stop-color="#FEFEFE" stop-opacity="0"/></linearGradient></defs><g fill="none" fill-rule="evenodd"><path fill="#B5B5B5" d="M119.679 0h93v9h-93zm0 18h93v9h-93z"/><path fill="url(#a)" d="M82 38.304h126v89H82z" transform="translate(4)"/><g stroke="currentColor" stroke-linecap="round" stroke-linejoin="round" stroke-width="9"><path d="M95 96L71 72 47 96m24-24v54"/><path d="M121.34 110.34c12.038-6.563 18.095-20.452 14.713-33.74C132.671 63.313 120.711 54.01 107 54h-7.56c-4.974-19.237-21.285-33.421-41.027-35.675-19.741-2.254-38.83 7.888-48.013 25.509C1.22 61.454 3.842 82.91 17 97.8"/><path d="M95 96L71 72 47 96"/></g></g></svg>