<svg xmlns="http://www.w3.org/2000/svg" width="213" height="131" viewBox="0 0 213 131">
	<defs>
		<linearGradient id="deploy_step-a" x1="50%" x2="50%" y1="0%" y2="100%">
			<stop offset="0%" stop-color="#B0B0B0" />
			<stop offset="100%" stop-color="#FEFEFE" stop-opacity="0" />
		</linearGradient>
	</defs>
	<g fill="none" fill-rule="evenodd" transform="translate(4)">
		<rect width="93" height="9" x="115.679" fill="#B5B5B5" />
		<rect width="93" height="9" x="115.679" y="18" fill="#B5B5B5" />
		<rect width="126" height="89" x="82" y="38.304" fill="url(#deploy_step-a)" />
		<g stroke="#000" stroke-linecap="round" stroke-linejoin="round" stroke-width="9" transform="translate(0 18)">
			<polyline points="91 78 67 54 43 78" />
			<line x1="67" x2="67" y1="54" y2="108" />
			<path d="M117.34,92.34 C129.378327,85.7770535 135.435239,71.8875695 132.053243,58.6001437 C128.671246,45.3127179 116.711072,36.0090525 103,36 L95.44,36 C90.4664869,16.7628886 74.1545876,2.57865443 54.413221,0.324605772 C34.6718545,-1.92944288 15.5823947,8.21270098 6.40047695,25.8335601 C-2.78144079,43.4544191 -0.157526398,64.9110179 13,79.8" />
			<polyline points="91 78 67 54 43 78" />
		</g>
	</g>
</svg>
