<svg xmlns="http://www.w3.org/2000/svg" viewBox="0 0 185 124"><defs><linearGradient id="a" x1="50%" x2="50%" y1="0%" y2="100%"><stop offset="0%" stop-color="#B9D4F3"/><stop offset="100%" stop-color="#FEFEFE" stop-opacity="0"/></linearGradient></defs><g fill="none" fill-rule="evenodd"><path fill="url(#a)" d="M71 56h114v68H71z"/><path fill="#B9D4F3" d="M50 0h135v9H50zM50 18h135v9H50zM56 36h129v9H56z"/><path fill="currentColor" fill-rule="nonzero" d="M28.693 120v-3.22c-3.393-.348-5.701-.87-6.926-1.566-1.979-1.16-2.968-3.249-2.968-6.265 0-1.509.365-3.554 1.095-6.135.73-2.582 2.98-9.703 6.75-21.364h37.879l6.007 17.143c.848 2.437 1.508 4.757 1.979 6.962.471 2.204.707 3.742.707 4.612 0 2.61-.613 4.25-1.838 4.916-1.225.668-3.958 1.233-8.198 1.697V120H100v-3.22c-3.392-.58-5.807-1.668-7.244-3.263-1.437-1.595-3.357-5.758-5.76-12.487L50.954 0h-2.827L17.951 87.455c-4.523 13.11-7.715 21.145-9.576 24.104-1.861 2.959-4.653 4.7-8.375 5.221V120h28.693zM63 75H30l16.395-49L63 75z"/></g></svg>