<svg xmlns="http://www.w3.org/2000/svg" viewBox="0 0 171 124"><defs><linearGradient id="a" x1="50%" x2="50%" y1="0%" y2="100%"><stop offset="0%" stop-color="#B9D4F3"/><stop offset="100%" stop-color="#FEFEFE" stop-opacity="0"/></linearGradient></defs><g fill="none" fill-rule="evenodd"><path fill="url(#a)" d="M57 56h114v68H57z"/><path fill="#B9D4F3" d="M36 0h135v9H36zM36 18h135v9H36zM42 36h129v9H42z"/><path fill="currentColor" fill-rule="nonzero" d="M24.389 120v-2.737c-2.884-.296-4.846-.74-5.887-1.331-1.682-.986-2.523-2.762-2.523-5.326 0-1.282.31-3.02.93-5.214.622-2.195 2.534-8.248 5.738-18.16h32.198l5.106 14.572a49.608 49.608 0 011.682 5.918c.4 1.873.6 3.18.6 3.92 0 2.219-.52 3.612-1.562 4.179-1.04.567-3.364 1.048-6.968 1.442V120H85v-2.737c-2.883-.493-4.936-1.417-6.157-2.774-1.222-1.356-2.854-4.894-4.896-10.614L43.311 18h-2.403l-25.65 74.336c-3.845 11.145-6.558 17.974-8.14 20.49-1.581 2.514-3.954 3.993-7.118 4.437V120h24.389zM54 82H26l13.91-42L54 82z"/></g></svg>