<svg xmlns="http://www.w3.org/2000/svg" viewBox="0 0 165 134"><defs><linearGradient id="a" x1="50%" x2="50%" y1="0%" y2="100%"><stop offset="0%" stop-color="#B9D4F3"/><stop offset="100%" stop-color="#FEFEFE" stop-opacity="0"/></linearGradient></defs><g fill="none" fill-rule="evenodd"><path fill="#B9D4F3" d="M165 1v133h-9V1zM147 1v133h-9V1z"/><path fill="url(#a)" transform="rotate(90 68.5 68.5)" d="M0 10h133v113H0z"/><path stroke="currentColor" stroke-width="8" d="M37.25 18.487v26.28a33 33 0 01-4.166 16.05L7.632 106.544A28.766 28.766 0 004 120.533 7.467 7.467 0 0011.467 128h80.066A7.467 7.467 0 0099 120.533c0-4.896-1.25-9.712-3.632-13.99L69.916 60.818a33 33 0 01-4.166-16.05v-26.28h0M80.001 78.22c-33.25-14.934-28.5 19.91-57 4.978M23 18.489h57"/></g></svg>