<svg xmlns="http://www.w3.org/2000/svg" viewBox="0 0 155 134"><defs><linearGradient id="a" x1="50%" x2="50%" y1="0%" y2="100%"><stop offset="0%" stop-color="#B9D4F3"/><stop offset="100%" stop-color="#FEFEFE" stop-opacity="0"/></linearGradient></defs><g fill="none" fill-rule="evenodd"><path fill="#B9D4F3" d="M155 1v133h-9V1zM137 1v133h-9V1z"/><path fill="url(#a)" transform="rotate(90 58.5 68.5)" d="M-10 10h133v113H-10z"/><path stroke="currentColor" stroke-width="8" d="M28.85 45.866V63.46a33 33 0 01-4.142 16.007L6.716 111.903A21.64 21.64 0 004 122.4a5.6 5.6 0 005.6 5.6h59.8a5.6 5.6 0 005.6-5.6 21.64 21.64 0 00-2.716-10.497L54.292 79.468A33 33 0 0150.15 63.46V45.866h0m10.651 44.8c-24.85-11.2-21.3 14.933-42.6 3.733M18.2 45.867h42.6"/></g></svg>