<svg xmlns="http://www.w3.org/2000/svg" width="181" height="133" viewBox="0 0 181 133">
  <defs>
    <linearGradient id="showcase_step-a" x1="50%" x2="50%" y1="0%" y2="100%">
      <stop offset="0%" stop-color="#B9D4F3"/>
      <stop offset="100%" stop-color="#FEFEFE" stop-opacity="0"/>
    </linearGradient>
  </defs>
  <g fill="none" fill-rule="evenodd">
    <rect width="87" height="68" x="94" y="56" fill="url(#showcase_step-a)"/>
    <rect width="177" height="10" x="4" fill="#B9D4F3"/>
    <rect width="177" height="10" x="4" y="18" fill="#B9D4F3"/>
    <rect width="91" height="9" x="90" y="36" fill="#B9D4F3"/>
    <path fill="#000" fill-rule="nonzero" d="M95.2875057,19.412125 L95.2875057,3.88 C95.2875057,1.733875 93.5178834,0 91.3275118,0 L7.67264011,0 C5.48226847,0 3.71264619,1.733875 3.71264619,3.88 L3.71264619,19.412125 C1.64602436,19.533375 7.52073829e-05,21.21875 7.52073829e-05,23.28 L7.52073829e-05,39.248625 C-0.00777312126,42.1834102 0.59872234,45.0886028 1.78214915,47.784625 C2.31427333,49.021375 2.97014733,50.185375 3.71264619,51.28875 L3.71264619,93.12 C3.71264619,95.254 5.48226847,97 7.67264011,97 L91.3275118,97 C93.5178834,97 95.2875057,95.266125 95.2875057,93.12 L95.2875057,51.28875 C96.0416899,50.1825833 96.6880344,49.0093768 97.2180027,47.784625 C98.3936259,45.08075 99,42.207125 99,39.248625 L99,23.28 C99,21.21875 97.3541275,19.533375 95.2875057,19.412125 L95.2875057,19.412125 Z M10.5000759,7.4 L88.5000759,7.4 L88.5000759,19.4 L10.5000759,19.4 L10.5000759,7.4 Z M60.5000759,90.9710625 L38.5000759,90.9710625 L38.5000759,72.9710625 L60.5000759,72.9710625 L60.5000759,90.9710625 Z M89.4711706,90.4968906 L66.667683,90.4968906 L66.667683,72.2021235 C66.667683,69.8228628 64.7495073,67.9006352 62.3752619,67.9006352 L36.6207347,67.9006352 C34.2464892,67.9006352 32.3283135,69.8228628 32.3283135,72.2021235 L32.3283135,90.4968906 L9.5248259,90.4968906 L9.5248259,57.9400015 C9.91382657,58.1281916 10.3162411,58.3163817 10.7320694,58.4776876 C13.7233504,59.7412497 16.9024248,60.3730308 20.175396,60.3730308 C23.4483672,60.3730308 26.6140278,59.7412497 29.6187226,58.4776876 C31.4698293,57.6980428 33.2136254,56.7033237 34.8098695,55.5069722 C34.8366971,55.4935301 34.8635248,55.4935301 34.8903524,55.5069722 C36.4915591,56.7084145 38.2352433,57.7062652 40.0814993,58.4776876 C43.0727803,59.7412497 46.2518547,60.3730308 49.5248259,60.3730308 C52.7977971,60.3730308 55.9634577,59.7412497 58.9681525,58.4776876 C60.8192592,57.6980428 62.5630553,56.7033237 64.1592994,55.5069722 C64.186127,55.4935301 64.2129547,55.4935301 64.2397823,55.5069722 C65.840989,56.7084145 67.5846732,57.7062652 69.4309292,58.4776876 C72.4222102,59.7412497 75.6012847,60.3730308 78.8742558,60.3730308 C82.147227,60.3730308 85.3128876,59.7412497 88.3175824,58.4776876 C88.7199969,58.3029396 89.1224114,58.1281916 89.5248259,57.9400015 L89.5248259,90.4968906 L89.4711706,90.4968906 Z M94.0900137,39.6765281 C94.0900137,48.3475059 87.5168429,55.3800622 79.4278185,55.3800622 C73.9546478,55.3800622 69.1790381,52.175496 66.6570868,47.4195082 C66.2680624,46.6945101 65.5705015,46.2450112 64.7924527,46.2450112 L64.7119649,46.2450112 C63.9473307,46.2450112 63.2363551,46.6945101 62.8473307,47.4195082 C60.2273795,52.3582728 55.3569408,55.3973936 50.0900137,55.3800622 C44.6302576,55.3800622 39.8680624,52.189996 37.3461112,47.4485082 C36.9436722,46.7090101 36.219282,46.2450112 35.4278185,46.2450112 C34.6363551,46.2450112 33.8985503,46.7090101 33.5095259,47.4485082 C30.8747733,52.3675046 26.0106927,55.391601 20.7522088,55.3800622 C12.6631844,55.3800622 6.09001367,48.3475059 6.09001367,39.6765281 L6.09001367,26.452562 C6.09001367,26.4090621 6.11684294,26.3800622 6.15708684,26.3800622 L94.0229405,26.3800622 C94.0631844,26.3800622 94.0900137,26.4090621 94.0900137,26.452562 L94.0900137,39.6765281 L94.0900137,39.6765281 Z" transform="translate(0 36)"/>
  </g>
</svg>
