<svg xmlns="http://www.w3.org/2000/svg" viewBox="0 0 181 133"><defs><linearGradient id="a" x1="50%" x2="50%" y1="0%" y2="100%"><stop offset="0%" stop-color="#B9D4F3"/><stop offset="100%" stop-color="#FEFEFE" stop-opacity="0"/></linearGradient></defs><g fill="none" fill-rule="evenodd"><path fill="url(#a)" d="M94 56h87v68H94z"/><path fill="#B9D4F3" d="M4 0h177v10H4zM4 18h177v10H4zM90 36h91v9H90z"/><path fill="currentColor" fill-rule="nonzero" d="M95.288 55.412V39.88c0-2.146-1.77-3.88-3.96-3.88H7.673c-2.19 0-3.96 1.734-3.96 3.88v15.532C1.646 55.533 0 57.22 0 59.28v15.969a21.09 21.09 0 001.782 8.536 21.506 21.506 0 001.93 3.504v41.831c0 2.134 1.77 3.88 3.96 3.88h83.656c2.19 0 3.96-1.734 3.96-3.88V87.289c.754-1.106 1.4-2.28 1.93-3.504A21.297 21.297 0 0099 75.249V59.28c0-2.061-1.646-3.747-3.712-3.868zM10.5 43.4h78v12h-78v-12zm50 83.571h-22v-18h22v18zm28.971-.474H66.668v-18.295a4.292 4.292 0 00-4.293-4.301H36.621a4.292 4.292 0 00-4.293 4.301v18.295H9.525V93.94c.389.188.791.376 1.207.538a24.134 24.134 0 009.443 1.895c3.273 0 6.439-.632 9.444-1.895a24.514 24.514 0 005.19-2.971.085.085 0 01.081 0 24.185 24.185 0 005.191 2.97 24.134 24.134 0 009.444 1.896c3.273 0 6.438-.632 9.443-1.895a24.514 24.514 0 005.191-2.971.085.085 0 01.08 0 24.185 24.185 0 005.192 2.97 24.134 24.134 0 009.443 1.896c3.273 0 6.439-.632 9.444-1.895.402-.175.804-.35 1.207-.538v32.557h-.054zm4.619-50.82c0 8.67-6.573 15.703-14.662 15.703-5.473 0-10.249-3.205-12.77-7.96-.39-.725-1.087-1.175-1.866-1.175h-.08c-.765 0-1.476.45-1.865 1.175-2.62 4.938-7.49 7.977-12.757 7.96-5.46 0-10.222-3.19-12.744-7.931-.402-.74-1.127-1.204-1.918-1.204-.792 0-1.53.464-1.918 1.204-2.635 4.919-7.5 7.943-12.758 7.931-8.089 0-14.662-7.032-14.662-15.703V62.453c0-.044.027-.073.067-.073h87.866c.04 0 .067.03.067.073v13.224z"/></g></svg>