<svg xmlns="http://www.w3.org/2000/svg" width="185" height="124" viewBox="0 0 185 124">
  <defs>
    <linearGradient id="showcase_step-a" x1="50%" x2="50%" y1="0%" y2="100%">
      <stop offset="0%" stop-color="#B0B0B0"/>
      <stop offset="100%" stop-color="#FEFEFE" stop-opacity="0"/>
    </linearGradient>
  </defs>
  <g fill="none" fill-rule="evenodd">
    <rect width="65" height="68" x="120" y="56" fill="url(#showcase_step-a)"/>
    <rect width="91" height="9" x="94" fill="#B5B5B5"/>
    <rect width="91" height="9" x="94" y="18" fill="#B5B5B5"/>
    <rect width="91" height="9" x="94" y="36" fill="#B5B5B5"/>
    <path fill="#000" fill-rule="nonzero" d="M28.6925795,120 L28.6925795,116.780276 C25.3003534,116.432197 22.991755,115.91008 21.7667845,115.213923 C19.7879859,114.053662 18.7985866,111.965192 18.7985866,108.948513 C18.7985866,107.440174 19.163722,105.395214 19.8939929,102.813633 C20.6242638,100.232052 22.8739694,93.11095 26.6431095,81.4503263 L26.6431095,81.4503263 L64.5229682,81.4503263 L70.5300353,98.5931835 C71.3780919,101.029732 72.0376914,103.350254 72.5088339,105.55475 C72.9799764,107.759246 73.2155477,109.296592 73.2155477,110.166788 C73.2155477,112.777375 72.6030624,114.416244 71.3780919,115.083394 C70.1531213,115.750544 67.4204947,116.316171 63.180212,116.780276 L63.180212,116.780276 L63.180212,120 L100,120 L100,116.780276 C96.6077739,116.200145 94.1931684,115.1124 92.7561837,113.517041 C91.3191991,111.921682 89.3992933,107.759246 86.9964664,101.029732 L86.9964664,101.029732 L50.9540636,0 L48.1272085,0 L17.95053,87.4546773 C13.4275618,100.565627 10.2355713,108.600435 8.3745583,111.559101 C6.51354535,114.517766 3.72202591,116.258158 0,116.780276 L0,116.780276 L0,120 L28.6925795,120 Z M63,75 L30,75 L46.3949045,26 L63,75 Z"/>
  </g>
</svg>
