<?xml version="1.0" encoding="UTF-8"?>
<svg width="268px" height="74px" viewBox="0 0 268 74" version="1.1" xmlns="http://www.w3.org/2000/svg" xmlns:xlink="http://www.w3.org/1999/xlink">
    <!-- Generator: Sketch 63 (92445) - https://sketch.com -->
    <title>vitro_text_and_beaker</title>
    <desc>Created with Sketch.</desc>
    <g id="Page-1" stroke="none" stroke-width="1" fill="none" fill-rule="evenodd">
        <g id="Artboard" transform="translate(-41.000000, -88.000000)">
            <g id="vitro_text_and_beaker" transform="translate(44.000000, 90.000000)">
                <path d="M105.060547,70.4570312 L119.5625,34.8173828 C120.294922,33.0302734 121.041992,31.7924805 121.803711,31.1040039 C122.56543,30.4155273 123.546875,30.0273438 124.748047,29.9394531 L124.748047,29.9394531 L124.748047,27.7421875 L111.125,27.7421875 L111.125,29.9394531 C112.736328,29.96875 113.966797,30.1518555 114.816406,30.4887695 C115.666016,30.8256836 116.09082,31.6240234 116.09082,32.8837891 C116.09082,33.3232422 115.995605,33.9238281 115.805176,34.6855469 C115.614746,35.4472656 115.373047,36.1943359 115.080078,36.9267578 L115.080078,36.9267578 L109.015625,52.3076172 L108.3125,52.3076172 L101.544922,35.0371094 C101.427734,34.7441406 101.259277,34.2827148 101.039551,33.652832 C100.819824,33.0229492 100.709961,32.5908203 100.709961,32.3564453 C100.709961,31.3896484 101.112793,30.7597656 101.918457,30.4667969 C102.724121,30.1738281 103.917969,29.9980469 105.5,29.9394531 L105.5,29.9394531 L105.5,27.7421875 L83,27.7421875 L83,29.9394531 C84.2304688,30.0566406 85.0800781,30.3203125 85.5488281,30.7304688 C86.0175781,31.140625 86.6621094,32.1367188 87.4824219,33.71875 C88.2734375,35.2714844 89.027832,36.8681641 89.7456055,38.5087891 C90.4633789,40.1494141 91.203125,41.9072266 91.9648438,43.7822266 L91.9648438,43.7822266 L102.775391,70.4570312 L105.060547,70.4570312 Z M138.942383,20.9746094 C140.84668,20.9746094 142.47998,20.293457 143.842285,18.9311523 C145.20459,17.5688477 145.885742,15.9208984 145.885742,13.9873047 C145.885742,12.0537109 145.20459,10.4057617 143.842285,9.04345703 C142.47998,7.68115234 140.84668,7 138.942383,7 C137.008789,7 135.36084,7.68115234 133.998535,9.04345703 C132.63623,10.4057617 131.955078,12.0537109 131.955078,13.9873047 C131.955078,15.9208984 132.63623,17.5688477 133.998535,18.9311523 C135.36084,20.293457 137.008789,20.9746094 138.942383,20.9746094 Z M149.445312,69.1826172 L149.445312,67.0292969 C147.833984,66.7070312 146.735352,66.2675781 146.149414,65.7109375 C145.563477,65.1542969 145.270508,63.8945312 145.270508,61.9316406 L145.270508,61.9316406 L145.270508,27.7421875 L128,27.7421875 L128,29.9394531 C129.816406,30.2617188 131.032227,30.7524414 131.647461,31.4116211 C132.262695,32.0708008 132.570312,33.3085938 132.570312,35.125 L132.570312,35.125 L132.570312,61.5800781 C132.570312,63.6308594 132.130859,65.0517578 131.251953,65.8427734 C130.666016,66.3701172 129.582031,66.765625 128,67.0292969 L128,67.0292969 L128,69.1826172 L149.445312,69.1826172 Z M167.770508,70.3691406 C171.491211,70.3691406 174.640625,69.0068359 177.21875,66.2822266 C178.683594,64.7294922 179.943359,62.7226562 180.998047,60.2617188 L180.998047,60.2617188 L178.844727,59.2070312 C178.053711,60.671875 177.262695,61.8217773 176.47168,62.6567383 C175.680664,63.4916992 174.699219,63.9091797 173.527344,63.9091797 C172.179688,63.9091797 171.212891,63.25 170.626953,61.9316406 C170.246094,61.0820312 170.055664,60.0273438 170.055664,58.7675781 L170.055664,58.7675781 L170.055664,31.6972656 L178.625,31.6972656 L178.625,27.7421875 L170.055664,27.7421875 L170.055664,12.5371094 L167.770508,12.5371094 C165.543945,15.9648438 163.068359,19.1728516 160.34375,22.1611328 C158.966797,23.6845703 157.501953,25.1640625 155.949219,26.5996094 C154.777344,27.5957031 153.795898,28.4599609 153.004883,29.1923828 L153.004883,29.1923828 L153.004883,31.6972656 L157.663086,31.6972656 L157.663086,60.8769531 C157.663086,64.890625 159.186523,67.6591797 162.233398,69.1826172 C163.81543,69.9736328 165.661133,70.3691406 167.770508,70.3691406 Z M207.145508,69.1826172 L207.145508,67.0292969 C204.567383,66.7949219 202.846191,66.3041992 201.981934,65.5571289 C201.117676,64.8100586 200.685547,62.9423828 200.685547,59.9541016 L200.685547,59.9541016 L200.685547,42.9472656 C200.685547,40.1933594 201.293457,38.0766602 202.509277,36.597168 C203.725098,35.1176758 204.933594,34.3779297 206.134766,34.3779297 C206.691406,34.3779297 207.665527,35.2714844 209.057129,37.0585938 C210.44873,38.8457031 212.09668,39.7392578 214.000977,39.7392578 C215.670898,39.7392578 217.025879,39.1679688 218.065918,38.0253906 C219.105957,36.8828125 219.625977,35.4326172 219.625977,33.6748047 C219.625977,31.3896484 218.88623,29.6538086 217.406738,28.4672852 C215.927246,27.2807617 214.264648,26.6875 212.418945,26.6875 C209.958008,26.6875 207.790039,27.4199219 205.915039,28.8847656 C204.040039,30.3496094 202.150391,32.3271484 200.246094,34.8173828 L200.246094,34.8173828 L200.246094,27.7421875 L183.151367,27.7421875 L183.151367,29.9394531 C185.055664,30.1738281 186.330078,30.6279297 186.974609,31.3017578 C187.619141,31.9755859 187.941406,33.25 187.941406,35.125 L187.941406,35.125 L187.941406,59.6025391 L187.853516,62.2392578 C187.794922,63.9970703 187.428711,65.1835938 186.754883,65.7988281 C186.081055,66.4140625 184.879883,66.8242188 183.151367,67.0292969 L183.151367,67.0292969 L183.151367,69.1826172 L207.145508,69.1826172 Z M243.751953,70.5449219 C249.787109,70.5449219 254.679688,68.3842773 258.429688,64.0629883 C262.179688,59.7416992 264.054688,54.578125 264.054688,48.5722656 C264.054688,42.4785156 262.157715,37.2929688 258.36377,33.015625 C254.569824,28.7382812 249.699219,26.5996094 243.751953,26.5996094 C237.921875,26.5996094 233.080566,28.6943359 229.228027,32.8837891 C225.375488,37.0732422 223.449219,42.3027344 223.449219,48.5722656 C223.449219,54.8125 225.368164,60.034668 229.206055,64.2387695 C233.043945,68.4428711 237.892578,70.5449219 243.751953,70.5449219 Z M243.751953,67.6445312 C240.705078,67.6445312 238.668945,65.6962891 237.643555,61.7998047 C236.999023,59.2802734 236.676758,54.8710938 236.676758,48.5722656 C236.676758,42.3613281 237.013672,37.9521484 237.6875,35.3447266 C238.712891,31.4482422 240.749023,29.5 243.795898,29.5 C246.579102,29.5 248.446777,31.0014648 249.398926,34.0043945 C250.351074,37.0073242 250.827148,41.8632812 250.827148,48.5722656 C250.827148,55.3105469 250.373047,60.1738281 249.464844,63.1621094 C248.556641,66.1503906 246.652344,67.6445312 243.751953,67.6445312 Z" id="vitro_text_logo-copy" fill="#000000" fill-rule="nonzero"></path>
                <g id="vitro_beaker_logo-copy">
                    <path d="M7.10699457,2.96165066 L7.10699457,63.5079402 C7.10699457,66.269364 9.34557082,68.5079402 12.1069946,68.5079402 L54.7969833,68.5079402 C57.5584071,68.5079402 59.7969833,66.269364 59.7969833,63.5079402 L59.7969833,2.96165066 L59.7969833,2.96165066" id="Path-2" stroke="#000000" stroke-width="6"></path>
                    <path d="M58.5,31.5 L58.5,67.5 L8.5,67.5 L8.5,31.5 L58.5,31.5 Z M39,45.5 C35.9624339,45.5 33.5,47.9624339 33.5,51 C33.5,54.0375661 35.9624339,56.5 39,56.5 C42.0375661,56.5 44.5,54.0375661 44.5,51 C44.5,47.9624339 42.0375661,45.5 39,45.5 Z M25,47.5 C23.0670034,47.5 21.5,49.0670034 21.5,51 C21.5,52.9329966 23.0670034,54.5 25,54.5 C26.9329966,54.5 28.5,52.9329966 28.5,51 C28.5,49.0670034 26.9329966,47.5 25,47.5 Z" id="Combined-Shape" fill="#000000"></path>
                    <line x1="67" y1="1" x2="0" y2="1" id="Line-Copy-2" stroke="#000000" stroke-width="6" stroke-linecap="round"></line>
                    <line x1="28" y1="11" x2="19" y2="11" id="Line" stroke="#000000" stroke-width="5" stroke-linecap="round"></line>
                    <line x1="28" y1="21" x2="19" y2="21" id="Line-Copy" stroke="#000000" stroke-width="5" stroke-linecap="round"></line>
                </g>
            </g>
        </g>
    </g>
</svg>