<svg xmlns="http://www.w3.org/2000/svg" viewBox="0 0 182 64"><path d="M22.06 63.457l14.503-35.64c.732-1.787 1.479-3.025 2.24-3.713.762-.688 1.744-1.077 2.945-1.165v-2.197H28.125v2.197c1.611.03 2.842.213 3.691.55.85.337 1.275 1.135 1.275 2.395 0 .44-.095 1.04-.286 1.802-.19.761-.432 1.508-.725 2.24l-6.064 15.382h-.703l-6.768-17.27a36.457 36.457 0 01-.505-1.385c-.22-.63-.33-1.062-.33-1.297 0-.966.403-1.596 1.208-1.89.806-.292 2-.468 3.582-.527v-2.197H0v2.197c1.23.118 2.08.381 2.549.791.469.41 1.113 1.407 1.933 2.989a90.171 90.171 0 012.264 4.79c.717 1.64 1.457 3.398 2.219 5.273l10.81 26.675h2.286zm33.882-49.482c1.905 0 3.538-.682 4.9-2.044 1.363-1.362 2.044-3.01 2.044-4.944 0-1.933-.681-3.581-2.044-4.944C59.48.681 57.847 0 55.942 0 54.01 0 52.361.681 51 2.043c-1.363 1.363-2.044 3.01-2.044 4.944 0 1.934.681 3.582 2.044 4.944 1.362 1.362 3.01 2.044 4.943 2.044zm10.503 48.208v-2.154c-1.611-.322-2.71-.761-3.296-1.318-.586-.557-.878-1.816-.878-3.78V20.743H45v2.197c1.816.323 3.032.813 3.647 1.473.616.659.923 1.897.923 3.713V54.58c0 2.05-.44 3.472-1.318 4.263-.586.527-1.67.923-3.252 1.186v2.154h21.445zm18.326 1.186c3.72 0 6.87-1.362 9.448-4.087 1.465-1.553 2.724-3.56 3.779-6.02l-2.153-1.055c-.791 1.465-1.582 2.615-2.373 3.45-.791.835-1.773 1.252-2.945 1.252-1.347 0-2.314-.659-2.9-1.977-.38-.85-.571-1.905-.571-3.164v-27.07h8.569v-3.956h-8.57V5.537h-2.284a74.447 74.447 0 01-7.427 9.624 69.664 69.664 0 01-4.395 4.439 94.601 94.601 0 00-2.944 2.592v2.505h4.658v29.18c0 4.014 1.524 6.782 4.57 8.306 1.582.79 3.428 1.186 5.538 1.186zm39.375-1.186v-2.154c-2.579-.234-4.3-.725-5.164-1.472-.864-.747-1.296-2.615-1.296-5.603V35.947c0-2.754.607-4.87 1.823-6.35 1.216-1.48 2.425-2.22 3.626-2.22.556 0 1.53.894 2.922 2.682 1.392 1.787 3.04 2.68 4.944 2.68 1.67 0 3.025-.571 4.065-1.714 1.04-1.142 1.56-2.592 1.56-4.35 0-2.285-.74-4.021-2.22-5.208-1.479-1.186-3.141-1.78-4.987-1.78-2.461 0-4.629.733-6.504 2.198-1.875 1.465-3.765 3.442-5.669 5.932v-7.075h-17.095v2.197c1.905.235 3.18.689 3.824 1.363.644.674.966 1.948.966 3.823v24.478l-.087 2.636c-.06 1.758-.425 2.945-1.1 3.56-.673.615-1.874 1.025-3.603 1.23v2.154h23.995zm36.606 1.362c6.035 0 10.928-2.16 14.678-6.482 3.75-4.321 5.625-9.485 5.625-15.49 0-6.094-1.897-11.28-5.691-15.557-3.794-4.278-8.665-6.416-14.612-6.416-5.83 0-10.671 2.094-14.524 6.284-3.853 4.19-5.779 9.419-5.779 15.688 0 6.24 1.92 11.463 5.757 15.667 3.838 4.204 8.687 6.306 14.546 6.306zm0-2.9c-3.047 0-5.083-1.949-6.108-5.845-.645-2.52-.967-6.929-.967-13.228 0-6.21.337-10.62 1.01-13.227 1.026-3.897 3.062-5.845 6.109-5.845 2.783 0 4.65 1.501 5.603 4.504.952 3.003 1.428 7.86 1.428 14.568 0 6.739-.454 11.602-1.362 14.59-.908 2.988-2.813 4.483-5.713 4.483z"/></svg>