<svg xmlns="http://www.w3.org/2000/svg" width="270" height="74" viewBox="0 0 270 74">
  <g fill="none" fill-rule="evenodd" transform="translate(3 2)">
    <path fill="#000" fill-rule="nonzero" d="M107.060547,70.4570312 L121.5625,34.8173828 C122.294922,33.0302734 123.041992,31.7924805 123.803711,31.1040039 C124.56543,30.4155273 125.546875,30.0273438 126.748047,29.9394531 L126.748047,29.9394531 L126.748047,27.7421875 L113.125,27.7421875 L113.125,29.9394531 C114.736328,29.96875 115.966797,30.1518555 116.816406,30.4887695 C117.666016,30.8256836 118.09082,31.6240234 118.09082,32.8837891 C118.09082,33.3232422 117.995605,33.9238281 117.805176,34.6855469 C117.614746,35.4472656 117.373047,36.1943359 117.080078,36.9267578 L117.080078,36.9267578 L111.015625,52.3076172 L110.3125,52.3076172 L103.544922,35.0371094 C103.427734,34.7441406 103.259277,34.2827148 103.039551,33.652832 C102.819824,33.0229492 102.709961,32.5908203 102.709961,32.3564453 C102.709961,31.3896484 103.112793,30.7597656 103.918457,30.4667969 C104.724121,30.1738281 105.917969,29.9980469 107.5,29.9394531 L107.5,29.9394531 L107.5,27.7421875 L85,27.7421875 L85,29.9394531 C86.2304688,30.0566406 87.0800781,30.3203125 87.5488281,30.7304688 C88.0175781,31.140625 88.6621094,32.1367188 89.4824219,33.71875 C90.2734375,35.2714844 91.027832,36.8681641 91.7456055,38.5087891 C92.4633789,40.1494141 93.203125,41.9072266 93.9648438,43.7822266 L93.9648438,43.7822266 L104.775391,70.4570312 L107.060547,70.4570312 Z M140.942383,20.9746094 C142.84668,20.9746094 144.47998,20.293457 145.842285,18.9311523 C147.20459,17.5688477 147.885742,15.9208984 147.885742,13.9873047 C147.885742,12.0537109 147.20459,10.4057617 145.842285,9.04345703 C144.47998,7.68115234 142.84668,7 140.942383,7 C139.008789,7 137.36084,7.68115234 135.998535,9.04345703 C134.63623,10.4057617 133.955078,12.0537109 133.955078,13.9873047 C133.955078,15.9208984 134.63623,17.5688477 135.998535,18.9311523 C137.36084,20.293457 139.008789,20.9746094 140.942383,20.9746094 Z M151.445312,69.1826172 L151.445312,67.0292969 C149.833984,66.7070312 148.735352,66.2675781 148.149414,65.7109375 C147.563477,65.1542969 147.270508,63.8945312 147.270508,61.9316406 L147.270508,61.9316406 L147.270508,27.7421875 L130,27.7421875 L130,29.9394531 C131.816406,30.2617188 133.032227,30.7524414 133.647461,31.4116211 C134.262695,32.0708008 134.570312,33.3085938 134.570312,35.125 L134.570312,35.125 L134.570312,61.5800781 C134.570312,63.6308594 134.130859,65.0517578 133.251953,65.8427734 C132.666016,66.3701172 131.582031,66.765625 130,67.0292969 L130,67.0292969 L130,69.1826172 L151.445312,69.1826172 Z M169.770508,70.3691406 C173.491211,70.3691406 176.640625,69.0068359 179.21875,66.2822266 C180.683594,64.7294922 181.943359,62.7226562 182.998047,60.2617188 L182.998047,60.2617188 L180.844727,59.2070312 C180.053711,60.671875 179.262695,61.8217773 178.47168,62.6567383 C177.680664,63.4916992 176.699219,63.9091797 175.527344,63.9091797 C174.179688,63.9091797 173.212891,63.25 172.626953,61.9316406 C172.246094,61.0820312 172.055664,60.0273438 172.055664,58.7675781 L172.055664,58.7675781 L172.055664,31.6972656 L180.625,31.6972656 L180.625,27.7421875 L172.055664,27.7421875 L172.055664,12.5371094 L169.770508,12.5371094 C167.543945,15.9648438 165.068359,19.1728516 162.34375,22.1611328 C160.966797,23.6845703 159.501953,25.1640625 157.949219,26.5996094 C156.777344,27.5957031 155.795898,28.4599609 155.004883,29.1923828 L155.004883,29.1923828 L155.004883,31.6972656 L159.663086,31.6972656 L159.663086,60.8769531 C159.663086,64.890625 161.186523,67.6591797 164.233398,69.1826172 C165.81543,69.9736328 167.661133,70.3691406 169.770508,70.3691406 Z M209.145508,69.1826172 L209.145508,67.0292969 C206.567383,66.7949219 204.846191,66.3041992 203.981934,65.5571289 C203.117676,64.8100586 202.685547,62.9423828 202.685547,59.9541016 L202.685547,59.9541016 L202.685547,42.9472656 C202.685547,40.1933594 203.293457,38.0766602 204.509277,36.597168 C205.725098,35.1176758 206.933594,34.3779297 208.134766,34.3779297 C208.691406,34.3779297 209.665527,35.2714844 211.057129,37.0585938 C212.44873,38.8457031 214.09668,39.7392578 216.000977,39.7392578 C217.670898,39.7392578 219.025879,39.1679688 220.065918,38.0253906 C221.105957,36.8828125 221.625977,35.4326172 221.625977,33.6748047 C221.625977,31.3896484 220.88623,29.6538086 219.406738,28.4672852 C217.927246,27.2807617 216.264648,26.6875 214.418945,26.6875 C211.958008,26.6875 209.790039,27.4199219 207.915039,28.8847656 C206.040039,30.3496094 204.150391,32.3271484 202.246094,34.8173828 L202.246094,34.8173828 L202.246094,27.7421875 L185.151367,27.7421875 L185.151367,29.9394531 C187.055664,30.1738281 188.330078,30.6279297 188.974609,31.3017578 C189.619141,31.9755859 189.941406,33.25 189.941406,35.125 L189.941406,35.125 L189.941406,59.6025391 L189.853516,62.2392578 C189.794922,63.9970703 189.428711,65.1835938 188.754883,65.7988281 C188.081055,66.4140625 186.879883,66.8242188 185.151367,67.0292969 L185.151367,67.0292969 L185.151367,69.1826172 L209.145508,69.1826172 Z M245.751953,70.5449219 C251.787109,70.5449219 256.679688,68.3842773 260.429688,64.0629883 C264.179688,59.7416992 266.054688,54.578125 266.054688,48.5722656 C266.054688,42.4785156 264.157715,37.2929688 260.36377,33.015625 C256.569824,28.7382812 251.699219,26.5996094 245.751953,26.5996094 C239.921875,26.5996094 235.080566,28.6943359 231.228027,32.8837891 C227.375488,37.0732422 225.449219,42.3027344 225.449219,48.5722656 C225.449219,54.8125 227.368164,60.034668 231.206055,64.2387695 C235.043945,68.4428711 239.892578,70.5449219 245.751953,70.5449219 Z M245.751953,67.6445312 C242.705078,67.6445312 240.668945,65.6962891 239.643555,61.7998047 C238.999023,59.2802734 238.676758,54.8710938 238.676758,48.5722656 C238.676758,42.3613281 239.013672,37.9521484 239.6875,35.3447266 C240.712891,31.4482422 242.749023,29.5 245.795898,29.5 C248.579102,29.5 250.446777,31.0014648 251.398926,34.0043945 C252.351074,37.0073242 252.827148,41.8632812 252.827148,48.5722656 C252.827148,55.3105469 252.373047,60.1738281 251.464844,63.1621094 C250.556641,66.1503906 248.652344,67.6445312 245.751953,67.6445312 Z"/>
    <path stroke="#000" stroke-width="6" d="M9.10699457,2.96165066 L9.10699457,66.5079402 C9.10699457,67.6125097 10.0024251,68.5079402 11.1069946,68.5079402 L59.7969833,68.5079402 C60.9015528,68.5079402 61.7969833,67.6125097 61.7969833,66.5079402 L61.7969833,2.96165066 L61.7969833,2.96165066"/>
    <path fill="#000" d="M60.5,31.5 L60.5,67.5 L10.5,67.5 L10.5,31.5 L60.5,31.5 Z M41,45.5 C37.9624339,45.5 35.5,47.9624339 35.5,51 C35.5,54.0375661 37.9624339,56.5 41,56.5 C44.0375661,56.5 46.5,54.0375661 46.5,51 C46.5,47.9624339 44.0375661,45.5 41,45.5 Z M27,47.5 C25.0670034,47.5 23.5,49.0670034 23.5,51 C23.5,52.9329966 25.0670034,54.5 27,54.5 C28.9329966,54.5 30.5,52.9329966 30.5,51 C30.5,49.0670034 28.9329966,47.5 27,47.5 Z"/>
    <line x1="71" y1="1" y2="1" stroke="#000" stroke-linecap="square" stroke-width="6"/>
    <line x1="30" x2="21" y1="11" y2="11" stroke="#000" stroke-linecap="round" stroke-width="4"/>
    <line x1="30" x2="21" y1="21" y2="21" stroke="#000" stroke-linecap="round" stroke-width="4"/>
  </g>
</svg>
